<?xml version="1.0" encoding="UTF-8"?>
<svg xmlns="http://www.w3.org/2000/svg" xmlns:xlink="http://www.w3.org/1999/xlink" width="854" height="480" viewBox="0 0 854 480">
<defs>
<g>
<g id="glyph-0-0">
<path d="M 0.640625 0 L 0.640625 -0.703125 L 0.84375 -0.703125 C 1.21875 -0.703125 1.539062 -0.765625 1.8125 -0.890625 C 2.082031 -1.015625 2.21875 -1.320312 2.21875 -1.8125 L 2.21875 -10 C 2.21875 -10.519531 2.082031 -10.847656 1.8125 -10.984375 C 1.550781 -11.128906 1.226562 -11.203125 0.84375 -11.203125 L 0.640625 -11.203125 L 0.640625 -11.90625 L 9.03125 -11.90625 L 9.125 -8.984375 L 8.25 -8.984375 L 8.171875 -9.703125 C 8.128906 -10.066406 8 -10.382812 7.78125 -10.65625 C 7.5625 -10.925781 7.203125 -11.0625 6.703125 -11.0625 L 3.90625 -11.0625 L 3.90625 -6.640625 L 7.921875 -6.640625 L 7.921875 -5.8125 L 3.90625 -5.8125 L 3.90625 -0.828125 L 7.125 -0.828125 C 7.644531 -0.828125 8.023438 -0.960938 8.265625 -1.234375 C 8.503906 -1.515625 8.648438 -1.835938 8.703125 -2.203125 L 8.8125 -2.921875 L 9.6875 -2.921875 L 9.5625 0 Z "/>
</g>
<g id="glyph-0-1">
<path d="M 0.078125 0 L 0.078125 -0.703125 L 0.234375 -0.703125 C 0.628906 -0.703125 0.945312 -0.773438 1.1875 -0.921875 C 1.4375 -1.078125 1.722656 -1.359375 2.046875 -1.765625 L 4.15625 -4.484375 L 2.046875 -7.359375 C 1.804688 -7.640625 1.570312 -7.851562 1.34375 -8 C 1.113281 -8.15625 0.867188 -8.234375 0.609375 -8.234375 L 0.40625 -8.234375 L 0.40625 -8.9375 L 4.640625 -8.9375 L 4.640625 -8.234375 L 4.578125 -8.234375 C 4.203125 -8.234375 3.953125 -8.1875 3.828125 -8.09375 C 3.703125 -8 3.640625 -7.882812 3.640625 -7.75 C 3.640625 -7.632812 3.671875 -7.519531 3.734375 -7.40625 C 3.796875 -7.300781 3.890625 -7.160156 4.015625 -6.984375 L 5.125 -5.484375 L 5.984375 -6.734375 C 6.109375 -6.921875 6.207031 -7.097656 6.28125 -7.265625 C 6.363281 -7.441406 6.40625 -7.601562 6.40625 -7.75 C 6.40625 -7.945312 6.316406 -8.078125 6.140625 -8.140625 C 5.972656 -8.203125 5.757812 -8.234375 5.5 -8.234375 L 5.453125 -8.234375 L 5.453125 -8.9375 L 9.109375 -8.9375 L 9.109375 -8.234375 L 8.953125 -8.234375 C 8.628906 -8.234375 8.347656 -8.171875 8.109375 -8.046875 C 7.878906 -7.921875 7.597656 -7.628906 7.265625 -7.171875 L 5.546875 -4.890625 L 8 -1.578125 C 8.25 -1.253906 8.476562 -1.023438 8.6875 -0.890625 C 8.90625 -0.765625 9.125 -0.703125 9.34375 -0.703125 L 9.546875 -0.703125 L 9.546875 0 L 5.25 0 L 5.25 -0.703125 L 5.328125 -0.703125 C 5.992188 -0.703125 6.328125 -0.882812 6.328125 -1.25 C 6.328125 -1.375 6.285156 -1.507812 6.203125 -1.65625 C 6.117188 -1.8125 5.953125 -2.0625 5.703125 -2.40625 L 4.578125 -3.90625 L 3.421875 -2.265625 C 3.316406 -2.128906 3.210938 -1.960938 3.109375 -1.765625 C 3.015625 -1.578125 2.96875 -1.394531 2.96875 -1.21875 C 2.96875 -1.039062 3.046875 -0.910156 3.203125 -0.828125 C 3.367188 -0.742188 3.632812 -0.703125 4 -0.703125 L 4.046875 -0.703125 L 4.046875 0 Z "/>
</g>
<g id="glyph-0-2">
<path d="M 3.421875 0.171875 C 2.671875 0.171875 2.050781 -0.046875 1.5625 -0.484375 C 1.070312 -0.921875 0.828125 -1.59375 0.828125 -2.5 C 0.828125 -3.382812 1.140625 -4.039062 1.765625 -4.46875 C 2.398438 -4.894531 3.359375 -5.128906 4.640625 -5.171875 L 6.015625 -5.21875 L 6.015625 -6.21875 C 6.015625 -6.613281 5.976562 -6.960938 5.90625 -7.265625 C 5.84375 -7.578125 5.703125 -7.820312 5.484375 -8 C 5.265625 -8.175781 4.925781 -8.265625 4.46875 -8.265625 C 4.039062 -8.265625 3.71875 -8.1875 3.5 -8.03125 C 3.28125 -7.875 3.132812 -7.660156 3.0625 -7.390625 C 2.988281 -7.117188 2.953125 -6.804688 2.953125 -6.453125 C 2.484375 -6.453125 2.128906 -6.53125 1.890625 -6.6875 C 1.648438 -6.851562 1.53125 -7.125 1.53125 -7.5 C 1.53125 -7.882812 1.664062 -8.191406 1.9375 -8.421875 C 2.207031 -8.660156 2.570312 -8.832031 3.03125 -8.9375 C 3.488281 -9.050781 3.988281 -9.109375 4.53125 -9.109375 C 5.550781 -9.109375 6.3125 -8.890625 6.8125 -8.453125 C 7.320312 -8.015625 7.578125 -7.269531 7.578125 -6.21875 L 7.578125 -1.90625 C 7.578125 -1.4375 7.65625 -1.117188 7.8125 -0.953125 C 7.96875 -0.785156 8.238281 -0.703125 8.625 -0.703125 L 8.671875 -0.703125 L 8.671875 0 L 6.421875 0 L 6.15625 -1.4375 L 6.015625 -1.4375 C 5.785156 -1.125 5.554688 -0.847656 5.328125 -0.609375 C 5.109375 -0.367188 4.851562 -0.175781 4.5625 -0.03125 C 4.269531 0.101562 3.890625 0.171875 3.421875 0.171875 Z M 3.796875 -0.859375 C 4.472656 -0.859375 5.007812 -1.066406 5.40625 -1.484375 C 5.8125 -1.910156 6.015625 -2.476562 6.015625 -3.1875 L 6.015625 -4.53125 L 4.953125 -4.484375 C 4.003906 -4.441406 3.347656 -4.25 2.984375 -3.90625 C 2.628906 -3.570312 2.453125 -3.078125 2.453125 -2.421875 C 2.453125 -1.378906 2.898438 -0.859375 3.796875 -0.859375 Z "/>
</g>
<g id="glyph-0-3">
<path d="M 4.71875 0.171875 C 3.988281 0.171875 3.335938 0.015625 2.765625 -0.296875 C 2.191406 -0.609375 1.738281 -1.097656 1.40625 -1.765625 C 1.082031 -2.441406 0.921875 -3.328125 0.921875 -4.421875 C 0.921875 -5.609375 1.082031 -6.539062 1.40625 -7.21875 C 1.738281 -7.90625 2.179688 -8.390625 2.734375 -8.671875 C 3.296875 -8.960938 3.929688 -9.109375 4.640625 -9.109375 C 5.097656 -9.109375 5.550781 -9.046875 6 -8.921875 C 6.445312 -8.796875 6.8125 -8.609375 7.09375 -8.359375 C 7.382812 -8.109375 7.53125 -7.789062 7.53125 -7.40625 C 7.53125 -7.019531 7.40625 -6.75 7.15625 -6.59375 C 6.90625 -6.4375 6.535156 -6.359375 6.046875 -6.359375 C 6.046875 -6.878906 5.945312 -7.328125 5.75 -7.703125 C 5.5625 -8.078125 5.191406 -8.265625 4.640625 -8.265625 C 4.210938 -8.265625 3.835938 -8.15625 3.515625 -7.9375 C 3.203125 -7.71875 2.957031 -7.328125 2.78125 -6.765625 C 2.613281 -6.210938 2.53125 -5.4375 2.53125 -4.4375 C 2.53125 -3.257812 2.726562 -2.378906 3.125 -1.796875 C 3.519531 -1.210938 4.160156 -0.921875 5.046875 -0.921875 C 5.566406 -0.921875 6.019531 -1.023438 6.40625 -1.234375 C 6.789062 -1.453125 7.078125 -1.734375 7.265625 -2.078125 C 7.453125 -1.921875 7.546875 -1.707031 7.546875 -1.4375 C 7.546875 -1.175781 7.441406 -0.921875 7.234375 -0.671875 C 7.023438 -0.429688 6.710938 -0.226562 6.296875 -0.0625 C 5.878906 0.09375 5.351562 0.171875 4.71875 0.171875 Z "/>
</g>
<g id="glyph-0-4">
<path d="M 4 0.171875 C 3.15625 0.171875 2.539062 -0.0195312 2.15625 -0.40625 C 1.769531 -0.789062 1.578125 -1.460938 1.578125 -2.421875 L 1.578125 -7.984375 L 0.3125 -7.984375 L 0.3125 -8.65625 C 0.507812 -8.65625 0.726562 -8.695312 0.96875 -8.78125 C 1.21875 -8.863281 1.429688 -9 1.609375 -9.1875 C 1.804688 -9.382812 1.960938 -9.628906 2.078125 -9.921875 C 2.203125 -10.210938 2.304688 -10.566406 2.390625 -10.984375 L 3.15625 -10.984375 L 3.15625 -8.9375 L 5.328125 -8.9375 L 5.328125 -7.984375 L 3.15625 -7.984375 L 3.15625 -2.375 C 3.15625 -1.800781 3.269531 -1.378906 3.5 -1.109375 C 3.726562 -0.847656 4.035156 -0.71875 4.421875 -0.71875 C 4.617188 -0.71875 4.800781 -0.726562 4.96875 -0.75 C 5.132812 -0.769531 5.304688 -0.796875 5.484375 -0.828125 L 5.484375 -0.09375 C 5.335938 -0.03125 5.117188 0.0234375 4.828125 0.078125 C 4.546875 0.140625 4.269531 0.171875 4 0.171875 Z "/>
</g>
<g id="glyph-0-5">
</g>
<g id="glyph-0-6">
<path d="M 6.015625 0.171875 C 4.921875 0.171875 3.992188 -0.0820312 3.234375 -0.59375 C 2.472656 -1.101562 1.898438 -1.816406 1.515625 -2.734375 C 1.140625 -3.660156 0.953125 -4.738281 0.953125 -5.96875 C 0.953125 -7.164062 1.15625 -8.222656 1.5625 -9.140625 C 1.96875 -10.054688 2.566406 -10.773438 3.359375 -11.296875 C 4.148438 -11.816406 5.128906 -12.078125 6.296875 -12.078125 C 7.429688 -12.078125 8.273438 -11.894531 8.828125 -11.53125 C 9.390625 -11.175781 9.671875 -10.734375 9.671875 -10.203125 C 9.671875 -9.847656 9.53125 -9.5625 9.25 -9.34375 C 8.976562 -9.132812 8.632812 -9.03125 8.21875 -9.03125 C 8.21875 -9.375 8.15625 -9.707031 8.03125 -10.03125 C 7.914062 -10.363281 7.710938 -10.640625 7.421875 -10.859375 C 7.140625 -11.078125 6.753906 -11.1875 6.265625 -11.1875 C 5.015625 -11.1875 4.125 -10.734375 3.59375 -9.828125 C 3.0625 -8.921875 2.796875 -7.632812 2.796875 -5.96875 C 2.796875 -4.976562 2.914062 -4.101562 3.15625 -3.34375 C 3.394531 -2.582031 3.769531 -1.988281 4.28125 -1.5625 C 4.789062 -1.144531 5.453125 -0.9375 6.265625 -0.9375 C 7.078125 -0.9375 7.710938 -1.078125 8.171875 -1.359375 C 8.640625 -1.640625 9.007812 -1.96875 9.28125 -2.34375 C 9.375 -2.289062 9.453125 -2.210938 9.515625 -2.109375 C 9.578125 -2.003906 9.609375 -1.867188 9.609375 -1.703125 C 9.609375 -1.421875 9.476562 -1.132812 9.21875 -0.84375 C 8.96875 -0.5625 8.578125 -0.320312 8.046875 -0.125 C 7.515625 0.0703125 6.835938 0.171875 6.015625 0.171875 Z "/>
</g>
<g id="glyph-0-7">
<path d="M 4.78125 0.171875 C 3.582031 0.171875 2.640625 -0.210938 1.953125 -0.984375 C 1.265625 -1.753906 0.921875 -2.921875 0.921875 -4.484375 C 0.921875 -6.035156 1.25 -7.191406 1.90625 -7.953125 C 2.570312 -8.722656 3.546875 -9.109375 4.828125 -9.109375 C 6.035156 -9.109375 6.984375 -8.722656 7.671875 -7.953125 C 8.359375 -7.191406 8.703125 -6.035156 8.703125 -4.484375 C 8.703125 -2.921875 8.367188 -1.753906 7.703125 -0.984375 C 7.046875 -0.210938 6.070312 0.171875 4.78125 0.171875 Z M 4.8125 -0.703125 C 5.644531 -0.703125 6.226562 -1.019531 6.5625 -1.65625 C 6.90625 -2.300781 7.078125 -3.242188 7.078125 -4.484375 C 7.078125 -5.734375 6.90625 -6.664062 6.5625 -7.28125 C 6.21875 -7.90625 5.628906 -8.21875 4.796875 -8.21875 C 3.960938 -8.21875 3.375 -7.90625 3.03125 -7.28125 C 2.695312 -6.664062 2.53125 -5.734375 2.53125 -4.484375 C 2.53125 -3.242188 2.703125 -2.300781 3.046875 -1.65625 C 3.390625 -1.019531 3.976562 -0.703125 4.8125 -0.703125 Z "/>
</g>
<g id="glyph-0-8">
<path d="M 1.296875 -7.359375 C 1.171875 -7.710938 1.019531 -7.945312 0.84375 -8.0625 C 0.675781 -8.175781 0.414062 -8.234375 0.0625 -8.234375 L 0.0625 -8.9375 L 4.234375 -8.9375 L 4.234375 -8.234375 L 4.015625 -8.234375 C 3.347656 -8.234375 3.015625 -7.96875 3.015625 -7.4375 C 3.015625 -7.34375 3.023438 -7.242188 3.046875 -7.140625 C 3.066406 -7.046875 3.101562 -6.9375 3.15625 -6.8125 L 4.28125 -3.671875 C 4.4375 -3.253906 4.585938 -2.800781 4.734375 -2.3125 C 4.878906 -1.832031 4.988281 -1.453125 5.0625 -1.171875 C 5.125 -1.398438 5.242188 -1.734375 5.421875 -2.171875 C 5.597656 -2.617188 5.757812 -3.046875 5.90625 -3.453125 L 7.109375 -6.703125 C 7.203125 -6.972656 7.25 -7.210938 7.25 -7.421875 C 7.25 -7.960938 6.882812 -8.234375 6.15625 -8.234375 L 6.03125 -8.234375 L 6.03125 -8.9375 L 9.609375 -8.9375 L 9.609375 -8.234375 L 9.40625 -8.234375 C 9.082031 -8.234375 8.835938 -8.148438 8.671875 -7.984375 C 8.515625 -7.816406 8.335938 -7.46875 8.140625 -6.9375 L 5.5 0 L 3.984375 0 Z "/>
</g>
<g id="glyph-0-9">
<path d="M 4.78125 0.171875 C 3.570312 0.171875 2.625 -0.226562 1.9375 -1.03125 C 1.257812 -1.832031 0.921875 -2.957031 0.921875 -4.40625 C 0.921875 -5.957031 1.238281 -7.128906 1.875 -7.921875 C 2.519531 -8.710938 3.4375 -9.109375 4.625 -9.109375 C 5.695312 -9.109375 6.539062 -8.773438 7.15625 -8.109375 C 7.769531 -7.441406 8.078125 -6.445312 8.078125 -5.125 L 8.078125 -4.34375 L 2.53125 -4.34375 C 2.550781 -3.132812 2.769531 -2.253906 3.1875 -1.703125 C 3.601562 -1.160156 4.210938 -0.890625 5.015625 -0.890625 C 5.597656 -0.890625 6.09375 -1.003906 6.5 -1.234375 C 6.90625 -1.472656 7.207031 -1.742188 7.40625 -2.046875 C 7.476562 -2.015625 7.546875 -1.945312 7.609375 -1.84375 C 7.679688 -1.75 7.71875 -1.628906 7.71875 -1.484375 C 7.71875 -1.265625 7.609375 -1.023438 7.390625 -0.765625 C 7.179688 -0.515625 6.859375 -0.296875 6.421875 -0.109375 C 5.992188 0.078125 5.445312 0.171875 4.78125 0.171875 Z M 6.40625 -5.25 C 6.40625 -6.132812 6.265625 -6.847656 5.984375 -7.390625 C 5.710938 -7.929688 5.242188 -8.203125 4.578125 -8.203125 C 3.972656 -8.203125 3.5 -7.945312 3.15625 -7.4375 C 2.820312 -6.9375 2.625 -6.207031 2.5625 -5.25 Z "/>
</g>
<g id="glyph-0-10">
<path d="M 0.546875 0 L 0.546875 -0.703125 L 0.59375 -0.703125 C 0.976562 -0.703125 1.300781 -0.769531 1.5625 -0.90625 C 1.832031 -1.039062 1.96875 -1.375 1.96875 -1.90625 L 1.96875 -7.109375 C 1.96875 -7.585938 1.832031 -7.894531 1.5625 -8.03125 C 1.289062 -8.164062 0.96875 -8.234375 0.59375 -8.234375 L 0.546875 -8.234375 L 0.546875 -8.9375 L 3.125 -8.9375 L 3.4375 -7.28125 L 3.515625 -7.28125 C 3.660156 -7.613281 3.816406 -7.921875 3.984375 -8.203125 C 4.148438 -8.484375 4.367188 -8.703125 4.640625 -8.859375 C 4.921875 -9.023438 5.304688 -9.109375 5.796875 -9.109375 C 6.410156 -9.109375 6.863281 -9 7.15625 -8.78125 C 7.457031 -8.570312 7.609375 -8.273438 7.609375 -7.890625 C 7.609375 -7.546875 7.488281 -7.257812 7.25 -7.03125 C 7.007812 -6.8125 6.609375 -6.703125 6.046875 -6.703125 C 6.046875 -7.160156 5.976562 -7.488281 5.84375 -7.6875 C 5.71875 -7.894531 5.492188 -8 5.171875 -8 C 4.859375 -8 4.59375 -7.875 4.375 -7.625 C 4.164062 -7.382812 4 -7.078125 3.875 -6.703125 C 3.757812 -6.328125 3.671875 -5.9375 3.609375 -5.53125 C 3.554688 -5.125 3.53125 -4.757812 3.53125 -4.4375 L 3.53125 -1.8125 C 3.53125 -1.320312 3.664062 -1.015625 3.9375 -0.890625 C 4.207031 -0.765625 4.53125 -0.703125 4.90625 -0.703125 L 5.375 -0.703125 L 5.375 0 Z "/>
</g>
</g>
</defs>
<g fill="rgb(100%, 100%, 100%)" fill-opacity="1">
<use xlink:href="#glyph-0-0" x="30" y="37.817383"/>
<use xlink:href="#glyph-0-1" x="40" y="37.817383"/>
<use xlink:href="#glyph-0-2" x="50" y="37.817383"/>
<use xlink:href="#glyph-0-3" x="59" y="37.817383"/>
<use xlink:href="#glyph-0-4" x="67" y="37.817383"/>
<use xlink:href="#glyph-0-5" x="73" y="37.817383"/>
<use xlink:href="#glyph-0-6" x="77" y="37.817383"/>
<use xlink:href="#glyph-0-7" x="87" y="37.817383"/>
<use xlink:href="#glyph-0-8" x="97" y="37.817383"/>
<use xlink:href="#glyph-0-9" x="107" y="37.817383"/>
<use xlink:href="#glyph-0-10" x="116" y="37.817383"/>
</g>
</svg>
